
<!-- Generator: visioncortex VTracer 0.6.4 -->
<svg version="1.1" xmlns="http://www.w3.org/2000/svg" viewBox="0 0 1792 576" preserveAspectRatio="xMidYMid meet">
<path d="M0 0 C591.36 0 1182.72 0 1792 0 C1792 190.08 1792 380.16 1792 576 C1200.64 576 609.28 576 0 576 C0 385.92 0 195.84 0 0 Z " fill="#F4F4F4" transform="translate(0,0)"/>
<path d="M0 0 C0.646 0.672 1.292 1.343 1.957 2.035 C4.429 4.413 6.906 5.522 10 7 C12.684 8.543 15.31 10.175 17.938 11.812 C18.954 12.432 18.954 12.432 19.99 13.064 C24.119 15.633 27.798 18.402 31.386 21.687 C33.093 23.075 34.753 23.964 36.75 24.875 C40.305 26.515 43.249 28.582 46.375 30.938 C50.642 34.132 54.852 36.619 59.711 38.797 C62.442 40.232 64.604 42.057 67 44 C69.195 45.466 71.395 46.902 73.625 48.312 C74.542 48.898 74.542 48.898 75.477 49.495 C78.358 51.334 81.249 53.155 84.148 54.965 C85.992 56.119 87.826 57.289 89.648 58.477 C91.062 59.393 92.5 60.275 93.977 61.086 C96.908 62.934 97.931 64.71 98.719 68.023 C99.754 76.879 99.754 76.879 97.102 80.824 C93.758 84.286 92.033 84.898 87.188 85.375 C82.555 85.28 79.842 83.486 76 81 C75.01 80.67 74.02 80.34 73 80 C73.002 80.998 73.004 81.997 73.007 83.026 C73.027 92.484 73.042 101.942 73.052 111.401 C73.057 116.262 73.064 121.124 73.075 125.985 C73.086 130.686 73.092 135.387 73.095 140.088 C73.097 141.872 73.1 143.656 73.106 145.439 C73.203 178.762 73.203 178.762 65 188 C62.414 189.949 62.414 189.949 59.625 191.688 C58.71 192.269 57.795 192.85 56.852 193.449 C51.139 196.556 45.951 197.318 39.52 197.414 C38.692 197.434 37.864 197.453 37.012 197.473 C34.279 197.534 31.546 197.58 28.812 197.625 C26.867 197.662 24.922 197.7 22.976 197.738 C3.755 198.09 -15.463 198.178 -34.687 198.026 C-37.034 198.008 -39.38 197.99 -41.727 197.974 C-49.979 197.915 -58.231 197.837 -66.483 197.736 C-69.226 197.702 -71.968 197.675 -74.711 197.654 C-78.57 197.621 -82.43 197.569 -86.289 197.512 C-87.44 197.505 -88.592 197.499 -89.778 197.492 C-98.972 197.324 -107.681 195.829 -114.75 189.562 C-117 187 -117 187 -117 184 C-117.99 183.67 -118.98 183.34 -120 183 C-123.894 177.163 -124.57 171.183 -124.454 164.349 C-124.455 163.431 -124.455 162.513 -124.456 161.567 C-124.453 158.564 -124.422 155.562 -124.391 152.559 C-124.383 150.464 -124.377 148.369 -124.373 146.275 C-124.358 140.785 -124.319 135.296 -124.275 129.807 C-124.234 124.196 -124.215 118.586 -124.195 112.975 C-124.153 101.983 -124.084 90.991 -124 80 C-128.169 81.946 -128.169 81.946 -131.812 84.688 C-135.316 86.79 -139.013 86.23 -143 86 C-143 85.34 -143 84.68 -143 84 C-143.784 83.732 -144.567 83.464 -145.375 83.188 C-148 82 -148 82 -150 79 C-151.04 74.353 -150.828 70.485 -148.492 66.297 C-144.871 61.554 -141.146 57.967 -135.93 55.074 C-134.012 54.007 -132.318 52.815 -130.562 51.5 C-127.224 49.071 -123.709 47.094 -120.078 45.137 C-118.392 44.215 -116.75 43.212 -115.125 42.188 C-113 41 -113 41 -110 41 C-109.74 40.39 -109.481 39.779 -109.213 39.15 C-107.878 36.784 -106.887 35.981 -104.586 34.598 C-103.907 34.182 -103.227 33.766 -102.527 33.338 C-101.817 32.917 -101.107 32.496 -100.375 32.062 C-99.688 31.645 -99.001 31.228 -98.293 30.799 C-96.897 29.952 -95.499 29.108 -94.099 28.267 C-89.421 25.443 -84.799 22.534 -80.227 19.543 C-79.331 18.958 -79.331 18.958 -78.418 18.361 C-77.197 17.562 -75.979 16.76 -74.762 15.955 C-70.222 13 -70.222 13 -68 13 C-67.505 11.515 -67.505 11.515 -67 10 C-64.734 8.422 -64.734 8.422 -61.75 6.75 C-60.674 6.14 -59.597 5.531 -58.488 4.902 C-56.14 3.622 -53.791 2.362 -51.418 1.129 C-50.269 0.529 -49.121 -0.07 -47.938 -0.688 C-46.874 -1.228 -45.811 -1.768 -44.715 -2.324 C-41.941 -3.807 -41.941 -3.807 -40.41 -6.129 C-38.127 -9.159 -35.415 -9.102 -31.824 -9.684 C-18.578 -11.168 -10.719 -7.633 0 0 Z " fill="#363535" transform="translate(331,190)"/>
<path d="M0 0 C13.386 -0.062 26.771 -0.124 40.562 -0.188 C44.78 -0.215 48.997 -0.242 53.342 -0.27 C58.516 -0.284 58.516 -0.284 60.942 -0.286 C62.627 -0.291 64.311 -0.301 65.996 -0.317 C68.557 -0.339 71.117 -0.342 73.678 -0.341 C74.421 -0.351 75.164 -0.362 75.93 -0.373 C81.095 -0.343 84.444 0.799 89 3 C91.377 3.572 91.377 3.572 93.562 3.875 C98.248 4.822 100.676 6.591 104 10 C104 10.66 104 11.32 104 12 C104.576 12.224 105.152 12.449 105.746 12.68 C112.582 16.684 116.871 25.612 119 33 C120.048 38.015 120.15 42.84 120.125 47.938 C120.129 48.71 120.133 49.483 120.137 50.279 C120.129 54.956 119.774 59.387 119 64 C118.34 64 117.68 64 117 64 C117.054 64.735 117.108 65.47 117.164 66.227 C116.766 72.963 109.824 80.481 105 85 C104.34 85 103.68 85 103 85 C103 85.66 103 86.32 103 87 C97.816 89.728 92.456 91.876 87 94 C90.973 102.128 90.973 102.128 96.062 109.562 C98.773 112.972 102 117.51 102 122 C102.889 122.342 102.889 122.342 103.797 122.691 C106.603 124.358 107.617 126.129 109.25 128.938 C109.771 129.813 110.292 130.688 110.828 131.59 C112 134 112 134 112 137 C112.66 137 113.32 137 114 137 C114 137.66 114 138.32 114 139 C114.99 139.33 115.98 139.66 117 140 C118.57 142.145 118.57 142.145 120.125 144.812 C120.643 145.685 121.161 146.558 121.695 147.457 C123 150 123 150 124 154 C112.45 154 100.9 154 89 154 C88.67 152.68 88.34 151.36 88 150 C87.381 149.402 86.763 148.804 86.125 148.188 C83.902 145.899 83.069 143.839 81.87 140.928 C80.417 137.709 78.5 134.819 76.562 131.875 C76.18 131.281 75.798 130.686 75.404 130.074 C73.644 127.367 71.852 124.816 69.824 122.297 C68.244 120.308 67.245 118.681 66.25 116.375 C63.993 111.597 60.83 107.585 57.609 103.418 C56 101 56 101 56 98 C47.42 98 38.84 98 30 98 C30 116.48 30 134.96 30 154 C20.1 154 10.2 154 0 154 C0 103.18 0 52.36 0 0 Z " fill="#393939" transform="translate(968,209)"/>
<path d="M0 0 C0 0.66 0 1.32 0 2 C0.872 2.174 0.872 2.174 1.762 2.352 C9.381 4.559 13.618 10.862 17.555 17.316 C21.528 24.693 22.155 31.744 22.114 40.047 C22.114 40.818 22.114 41.59 22.114 42.385 C22.113 44.911 22.106 47.438 22.098 49.965 C22.096 51.726 22.094 53.487 22.093 55.248 C22.09 59.866 22.08 64.484 22.069 69.102 C22.058 73.821 22.054 78.541 22.049 83.26 C22.038 92.507 22.021 101.753 22 111 C12.43 111 2.86 111 -7 111 C-7.025 108.927 -7.05 106.853 -7.076 104.717 C-7.16 97.84 -7.248 90.963 -7.339 84.086 C-7.394 79.919 -7.448 75.753 -7.497 71.586 C-7.545 67.56 -7.598 63.533 -7.653 59.507 C-7.673 57.976 -7.692 56.446 -7.709 54.915 C-7.796 47.224 -7.949 39.631 -9 32 C-9.66 32 -10.32 32 -11 32 C-11 31.34 -11 30.68 -11 30 C-22.857 25.808 -22.857 25.808 -35 28 C-35.495 29.485 -35.495 29.485 -36 31 C-36.99 31.66 -37.98 32.32 -39 33 C-42.293 42.53 -42.412 52.399 -42.293 62.367 C-42.287 63.782 -42.283 65.197 -42.28 66.612 C-42.269 70.284 -42.239 73.957 -42.206 77.629 C-42.169 82.063 -42.156 86.497 -42.139 90.931 C-42.11 97.621 -42.052 104.31 -42 111 C-51.57 111 -61.14 111 -71 111 C-71 87.24 -71 63.48 -71 39 C-71.66 39 -72.32 39 -73 39 C-73.147 38.301 -73.294 37.603 -73.445 36.883 C-73.67 35.973 -73.894 35.063 -74.125 34.125 C-74.334 33.22 -74.543 32.315 -74.758 31.383 C-75.823 28.768 -75.823 28.768 -78.613 27.707 C-82.455 26.905 -86.153 26.595 -90.062 26.562 C-90.757 26.53 -91.451 26.497 -92.166 26.463 C-95.997 26.423 -97.774 26.822 -100.809 29.215 C-104.913 34.432 -106.376 37.498 -106.325 44.253 C-106.324 44.964 -106.322 45.675 -106.321 46.408 C-106.314 48.746 -106.286 51.084 -106.258 53.422 C-106.25 55.049 -106.243 56.676 -106.238 58.303 C-106.221 62.577 -106.186 66.851 -106.148 71.125 C-106.088 77.98 -106.055 84.835 -106.022 91.691 C-106.008 94.089 -105.986 96.487 -105.964 98.885 C-105.954 100.345 -105.944 101.805 -105.934 103.265 C-105.923 104.544 -105.912 105.824 -105.9 107.142 C-106 110 -106 110 -107 111 C-109.146 111.088 -111.294 111.107 -113.441 111.098 C-114.747 111.094 -116.052 111.091 -117.396 111.088 C-118.785 111.08 -120.174 111.071 -121.562 111.062 C-122.955 111.057 -124.348 111.053 -125.74 111.049 C-129.16 111.037 -132.58 111.021 -136 111 C-136.156 101.218 -136.304 91.436 -136.443 81.653 C-136.508 77.107 -136.575 72.561 -136.648 68.016 C-136.935 50.162 -137.182 32.327 -136.59 14.477 C-136.549 13.213 -136.508 11.95 -136.466 10.649 C-136.134 2.134 -136.134 2.134 -135 1 C-133.158 0.9 -131.313 0.869 -129.469 0.867 C-128.349 0.866 -127.228 0.865 -126.074 0.863 C-124.895 0.867 -123.715 0.871 -122.5 0.875 C-120.731 0.869 -120.731 0.869 -118.926 0.863 C-117.245 0.865 -117.245 0.865 -115.531 0.867 C-114.495 0.868 -113.46 0.869 -112.393 0.871 C-110 1 -110 1 -109 2 C-108.928 3.686 -108.916 5.375 -108.938 7.062 C-108.947 7.982 -108.956 8.901 -108.965 9.848 C-108.976 10.558 -108.988 11.268 -109 12 C-108.196 11.464 -107.391 10.928 -106.562 10.375 C-106.015 10.014 -105.467 9.653 -104.902 9.281 C-103.545 8.367 -102.206 7.427 -100.879 6.469 C-100.135 5.943 -99.391 5.417 -98.625 4.875 C-97.937 4.377 -97.248 3.88 -96.539 3.367 C-90.519 0.126 -84.202 -0.366 -77.5 -0.312 C-76.379 -0.304 -76.379 -0.304 -75.235 -0.295 C-63.925 -0.045 -56.82 5.18 -49 13 C-46.701 13.232 -46.701 13.232 -44.688 10.75 C-43.357 9.389 -43.357 9.389 -42 8 C-31.65 -1.184 -13.168 -4.389 0 0 Z " fill="#383737" transform="translate(1498,252)"/>
<path d="M0 0 C0.875 -0.014 1.749 -0.028 2.65 -0.042 C8.699 0.001 13.643 1.152 19.25 3.375 C20.216 3.737 21.181 4.099 22.176 4.473 C22.963 4.791 23.751 5.109 24.562 5.438 C25.763 5.919 25.763 5.919 26.988 6.41 C29.123 7.321 31.187 8.313 33.25 9.375 C33.25 10.035 33.25 10.695 33.25 11.375 C33.91 11.375 34.57 11.375 35.25 11.375 C35.25 12.035 35.25 12.695 35.25 13.375 C36.57 13.705 37.89 14.035 39.25 14.375 C39.25 15.035 39.25 15.695 39.25 16.375 C39.91 16.375 40.57 16.375 41.25 16.375 C46.774 22.647 49.707 29.53 52.25 37.375 C52.574 38.183 52.897 38.991 53.23 39.824 C55.605 45.766 56.581 50.522 56.5 56.875 C56.487 58.063 56.487 58.063 56.473 59.274 C56.208 72.929 54.59 85.107 45.148 95.742 C43.25 97.375 43.25 97.375 41.25 97.375 C41.25 98.035 41.25 98.695 41.25 99.375 C39.204 101.112 37.177 102.692 35 104.25 C34.37 104.701 33.739 105.152 33.09 105.617 C24.849 111.293 15.315 114.494 5.266 114.508 C3.862 114.51 3.862 114.51 2.43 114.512 C0.979 114.506 0.979 114.506 -0.5 114.5 C-1.451 114.504 -2.403 114.508 -3.383 114.512 C-6.175 114.508 -8.96 114.457 -11.75 114.375 C-12.532 114.357 -13.313 114.34 -14.118 114.322 C-20.445 113.93 -25.055 111.528 -30.438 108.312 C-31.253 107.859 -32.068 107.406 -32.908 106.939 C-37.933 104.002 -41.263 101.002 -44.509 96.16 C-45.832 94.129 -45.832 94.129 -48.375 91.875 C-57.579 82.186 -58.222 68.308 -57.91 55.652 C-57.86 54.226 -57.807 52.801 -57.75 51.375 C-57.707 50.304 -57.665 49.233 -57.621 48.129 C-57.006 38.905 -54.862 29.597 -48.75 22.375 C-48.09 22.375 -47.43 22.375 -46.75 22.375 C-46.75 21.715 -46.75 21.055 -46.75 20.375 C-46.131 20.313 -45.513 20.251 -44.875 20.188 C-44.174 19.919 -43.473 19.651 -42.75 19.375 C-42.496 18.618 -42.242 17.862 -41.98 17.082 C-40.339 13.472 -38.27 12.346 -34.938 10.25 C-33.9 9.587 -32.862 8.925 -31.793 8.242 C-30.789 7.626 -29.785 7.01 -28.75 6.375 C-27.911 5.835 -27.072 5.295 -26.207 4.738 C-18.213 0.303 -8.928 0.078 0 0 Z " fill="#393939" transform="translate(1158.75,250.625)"/>
<path d="M0 0 C0.703 0.36 1.405 0.721 2.129 1.092 C14.981 7.848 24.711 17.689 30.312 31.25 C33.423 43.212 33.149 56.448 30.125 68.375 C29.919 69.364 29.713 70.352 29.5 71.371 C28.123 77.637 26.484 83.483 22.125 88.375 C21.465 88.375 20.805 88.375 20.125 88.375 C19.898 88.952 19.671 89.53 19.438 90.125 C17.784 92.959 15.729 94.406 13.125 96.375 C12.609 96.891 12.094 97.406 11.562 97.938 C9.867 99.633 8.11 101.03 6.125 102.375 C5.465 102.375 4.805 102.375 4.125 102.375 C4.125 103.035 4.125 103.695 4.125 104.375 C3.499 104.58 2.872 104.785 2.227 104.996 C1.409 105.266 0.592 105.535 -0.25 105.812 C-1.062 106.079 -1.874 106.346 -2.711 106.621 C-4.885 107.327 -4.885 107.327 -6.875 108.375 C-10.86 108.901 -14.864 109.131 -18.875 109.375 C-19.843 109.442 -20.811 109.509 -21.809 109.578 C-30.339 109.902 -37.8 107.846 -45.875 105.375 C-45.875 104.715 -45.875 104.055 -45.875 103.375 C-46.535 103.478 -47.195 103.581 -47.875 103.688 C-52.245 103.232 -55.43 101.031 -58.875 98.375 C-59.37 97.385 -59.37 97.385 -59.875 96.375 C-61.36 95.88 -61.36 95.88 -62.875 95.375 C-64.664 93.633 -64.664 93.633 -66.5 91.5 C-67.417 90.452 -67.417 90.452 -68.352 89.383 C-69.875 87.375 -69.875 87.375 -70.875 84.375 C-71.535 84.375 -72.195 84.375 -72.875 84.375 C-73.308 83.426 -73.741 82.478 -74.188 81.5 C-75.668 78.175 -75.668 78.175 -78.875 76.375 C-79.062 73.25 -79.062 73.25 -78.875 70.375 C-79.535 70.375 -80.195 70.375 -80.875 70.375 C-83.745 43.776 -83.745 43.776 -78.875 32.375 C-78.411 30.793 -77.953 29.21 -77.5 27.625 C-76.138 23.489 -74.085 21.344 -70.875 18.375 C-70.359 17.303 -69.844 16.23 -69.312 15.125 C-68.838 14.217 -68.364 13.31 -67.875 12.375 C-65.812 11.75 -65.812 11.75 -63.875 11.375 C-62.591 9.391 -62.591 9.391 -61.875 7.375 C-61.215 7.375 -60.555 7.375 -59.875 7.375 C-59.875 6.715 -59.875 6.055 -59.875 5.375 C-55.64 1.92 -51.496 0.477 -46.242 -0.914 C-43.876 -1.546 -43.876 -1.546 -41.84 -2.672 C-30.304 -8.268 -10.967 -5.676 0 0 Z " fill="#383737" transform="translate(1309.875,256.625)"/>
<path d="M0 0 C34.98 0 69.96 0 106 0 C106 8.25 106 16.5 106 25 C101.05 25.248 101.05 25.248 96 25.5 C94.496 25.578 94.496 25.578 92.961 25.658 C77.806 26.379 62.657 25.919 47.5 25.5 C41.395 25.335 35.29 25.17 29 25 C29 37.54 29 50.08 29 63 C51.77 63 74.54 63 98 63 C98 71.25 98 79.5 98 88 C75.56 88.33 53.12 88.66 30 89 C29.67 101.54 29.34 114.08 29 127 C55.07 127 81.14 127 108 127 C108 135.25 108 143.5 108 152 C72.36 152 36.72 152 0 152 C0 101.84 0 51.68 0 0 Z " fill="#363535" transform="translate(505,210)"/>
<path d="M0 0 C4.896 4.198 8.36 8.06 11 14 C11.681 14.825 12.361 15.65 13.062 16.5 C20.751 26.421 18 44.16 18 55 C-9.06 55 -36.12 55 -64 55 C-62.282 63.45 -62.282 63.45 -58 70 C-57.01 70.495 -57.01 70.495 -56 71 C-56 71.66 -56 72.32 -56 73 C-50.864 75.671 -45.762 78.127 -40 79 C-40 79.66 -40 80.32 -40 81 C-30.498 80.847 -23.361 79.522 -15 75 C-13.866 74.464 -12.731 73.928 -11.562 73.375 C-8.972 72.1 -8.972 72.1 -6.938 70.25 C-5 69 -5 69 -2.625 69.062 C0.644 70.23 3.145 72.037 6 74 C7.646 74.716 9.307 75.403 11 76 C11 76.66 11 77.32 11 78 C12.98 78.495 12.98 78.495 15 79 C14.812 80.812 14.812 80.812 14 83 C13.299 83.413 12.597 83.825 11.875 84.25 C9.043 85.974 7.927 87.25 5.938 89.812 C-1.15 98.177 -13.249 102.298 -23.972 103.269 C-27.008 103.364 -30.026 103.361 -33.062 103.312 C-34.074 103.316 -35.085 103.319 -36.127 103.322 C-44.727 103.261 -52.953 102.54 -60.625 98.375 C-61.882 97.706 -61.882 97.706 -63.164 97.023 C-63.77 96.686 -64.376 96.348 -65 96 C-65 95.34 -65 94.68 -65 94 C-65.583 93.885 -66.165 93.771 -66.766 93.652 C-69.165 92.952 -70.729 92.018 -72.75 90.562 C-73.364 90.131 -73.977 89.699 -74.609 89.254 C-75.068 88.84 -75.527 88.426 -76 88 C-76 87.34 -76 86.68 -76 86 C-76.66 86 -77.32 86 -78 86 C-78.66 84.35 -79.32 82.7 -80 81 C-80.66 81 -81.32 81 -82 81 C-91.129 64.385 -95.37 47.328 -89.988 28.785 C-87.667 22.243 -84.885 15.776 -81 10 C-80.34 10 -79.68 10 -79 10 C-78.753 9.423 -78.505 8.845 -78.25 8.25 C-76.817 5.671 -75.216 3.939 -73 2 C-72.34 2 -71.68 2 -71 2 C-70.67 1.01 -70.34 0.02 -70 -1 C-47.809 -13.68 -21.014 -16.112 0 0 Z " fill="#393838" transform="translate(926,262)"/>
<path d="M0 0 C1.231 0.083 2.462 0.165 3.73 0.25 C13.875 1.116 22.657 4.049 32 8 C32 8.66 32 9.32 32 10 C32.949 10.309 33.898 10.619 34.875 10.938 C38 12 38 12 40 13 C39.865 19.203 37.472 22.665 33.789 27.57 C32.023 29.968 30.493 32.425 29 35 C26.656 34.596 25.32 34.332 23.645 32.59 C21.725 30.735 19.951 29.913 17.5 28.875 C16.727 28.542 15.953 28.21 15.156 27.867 C13.46 27.185 11.734 26.578 10 26 C10 25.34 10 24.68 10 24 C6.813 23.941 3.625 23.906 0.438 23.875 C-0.458 23.858 -1.353 23.841 -2.275 23.824 C-7.601 23.785 -11.964 24.245 -17 26 C-17 29.3 -17 32.6 -17 36 C-16.29 36.338 -15.579 36.675 -14.848 37.023 C-13.929 37.469 -13.009 37.915 -12.062 38.375 C-11.146 38.816 -10.229 39.257 -9.285 39.711 C-7 41 -7 41 -6 43 C-3.19 43.692 -3.19 43.692 0.062 44.125 C1.167 44.293 2.272 44.46 3.41 44.633 C4.265 44.754 5.119 44.875 6 45 C6 45.66 6 46.32 6 47 C6.743 46.959 7.485 46.918 8.25 46.875 C11.22 47.01 12.396 47.661 15 49 C16.943 49.453 18.885 49.907 20.828 50.359 C24.473 51.434 27.657 53.209 31 55 C31 55.66 31 56.32 31 57 C31.893 57.391 31.893 57.391 32.805 57.789 C35.142 59.079 36.424 60.335 38.125 62.375 C38.623 62.96 39.12 63.545 39.633 64.148 C42.92 68.6 43.357 72.27 43.312 77.75 C43.307 78.469 43.301 79.189 43.295 79.93 C43.085 89.113 39.876 95.929 34 103 C33.34 103 32.68 103 32 103 C31.505 104.485 31.505 104.485 31 106 C29.293 107.168 29.293 107.168 27.188 108.188 C26.5 108.532 25.813 108.876 25.105 109.23 C23 110 23 110 19 110 C19 110.66 19 111.32 19 112 C7.304 116.498 -8.065 116.793 -20 113 C-20.893 112.72 -21.787 112.441 -22.707 112.152 C-27.979 110.371 -32.522 108.264 -37.141 105.172 C-39.958 103.396 -42.909 102.224 -46 101 C-46 100.34 -46 99.68 -46 99 C-47.32 98.34 -48.64 97.68 -50 97 C-49.615 91.754 -46.788 88.94 -43.438 85.188 C-42.917 84.59 -42.397 83.993 -41.861 83.377 C-40.583 81.911 -39.292 80.454 -38 79 C-35.501 80.222 -33.146 81.509 -30.75 82.938 C-28.147 84.446 -25.578 85.601 -22.75 86.625 C-19 88 -19 88 -16 90 C-11.397 91.047 -6.828 91.192 -2.125 91.188 C-1.069 91.188 -1.069 91.188 0.008 91.189 C5.006 91.139 9.275 90.575 14 89 C14.223 87.419 14.428 85.835 14.625 84.25 C14.799 82.927 14.799 82.927 14.977 81.578 C15.003 78.698 14.702 77.318 13 75 C11.108 74.279 11.108 74.279 9 74 C7.702 73.517 6.41 73.016 5.125 72.5 C1.773 71.213 -1.423 70.447 -5 70 C-5 69.34 -5 68.68 -5 68 C-6.32 68 -7.64 68 -9 68 C-9 67.34 -9 66.68 -9 66 C-10.258 65.897 -11.516 65.794 -12.812 65.688 C-25.183 64.231 -33.527 60.24 -42 51 C-46.584 42.669 -46.158 30.994 -44 22 C-42.825 19.521 -41.47 17.335 -40 15 C-39.588 14.154 -39.175 13.309 -38.75 12.438 C-32.648 3.939 -23.852 2.012 -14.038 0.305 C-9.287 -0.406 -4.776 -0.388 0 0 Z " fill="#3A393A" transform="translate(1586,251)"/>
<path d="M0 0 C9.57 0 19.14 0 29 0 C29.33 11.22 29.66 22.44 30 34 C39.17 34.289 39.17 34.289 48.34 34.568 C49.474 34.606 50.609 34.644 51.777 34.684 C52.945 34.72 54.113 34.757 55.316 34.795 C58 35 58 35 59 36 C59.099 37.696 59.131 39.395 59.133 41.094 C59.134 42.124 59.135 43.154 59.137 44.215 C59.133 45.299 59.129 46.383 59.125 47.5 C59.129 48.584 59.133 49.668 59.137 50.785 C59.135 51.815 59.134 52.845 59.133 53.906 C59.132 54.858 59.131 55.81 59.129 56.791 C59 59 59 59 58 60 C55.854 60.088 53.706 60.107 51.559 60.098 C50.384 60.095 49.208 60.093 47.998 60.09 C46.493 60.081 44.988 60.072 43.438 60.062 C38.673 60.042 33.909 60.021 29 60 C29.33 78.48 29.66 96.96 30 116 C38.714 120.357 48.554 119.757 58 118 C59.192 126.343 59.093 134.593 59 143 C51.801 146.15 45.031 147.369 37.25 147.312 C36.471 147.309 35.692 147.306 34.889 147.302 C28.477 147.182 21.909 146.684 16 144 C15.67 143.01 15.34 142.02 15 141 C14.34 141 13.68 141 13 141 C13 140.34 13 139.68 13 139 C12.01 139 11.02 139 10 139 C9.01 136.525 9.01 136.525 8 134 C7.34 134 6.68 134 6 134 C5.67 133.01 5.34 132.02 5 131 C4.34 130.67 3.68 130.34 3 130 C3 128.35 3 126.7 3 125 C2.34 125 1.68 125 1 125 C-0.085 121.746 -0.12 119.391 -0.114 115.968 C-0.113 114.727 -0.113 113.486 -0.113 112.207 C-0.108 110.853 -0.103 109.499 -0.098 108.145 C-0.096 106.759 -0.094 105.373 -0.093 103.987 C-0.09 100.343 -0.08 96.698 -0.069 93.053 C-0.058 89.333 -0.054 85.613 -0.049 81.893 C-0.038 74.595 -0.021 67.298 0 60 C-6.93 60 -13.86 60 -21 60 C-21 51.75 -21 43.5 -21 35 C-14.07 35 -7.14 35 0 35 C0 23.45 0 11.9 0 0 Z " fill="#3C3B3B" transform="translate(763,218)"/>
<path d="M0 0 C1.536 0.006 1.536 0.006 3.104 0.012 C4.216 0.014 5.328 0.016 6.475 0.018 C8.225 0.037 8.225 0.037 10.01 0.055 C11.76 0.056 11.76 0.056 13.545 0.057 C22.229 0.103 22.229 0.103 24.51 1.243 C24.51 54.043 24.51 106.843 24.51 161.243 C14.94 161.243 5.37 161.243 -4.49 161.243 C-4.536 140.546 -4.572 119.85 -4.594 99.153 C-4.604 89.544 -4.618 79.935 -4.641 70.326 C-4.661 61.953 -4.674 53.58 -4.678 45.207 C-4.681 40.772 -4.687 36.336 -4.702 31.901 C-4.715 27.729 -4.719 23.558 -4.716 19.387 C-4.717 17.853 -4.721 16.318 -4.729 14.784 C-4.739 12.696 -4.736 10.608 -4.731 8.52 C-4.733 7.349 -4.734 6.178 -4.736 4.972 C-4.411 1.359 -3.651 0.356 0 0 Z " fill="#3E3E3E" transform="translate(642.490234375,201.757080078125)"/>
<path d="M0 0 C9.24 0 18.48 0 28 0 C28 35.64 28 71.28 28 108 C18.76 108 9.52 108 0 108 C-0.153 94.066 -0.302 80.132 -0.443 66.199 C-0.509 59.729 -0.576 53.26 -0.648 46.791 C-0.717 40.553 -0.782 34.316 -0.843 28.078 C-0.867 25.693 -0.893 23.307 -0.921 20.922 C-0.959 17.593 -0.991 14.264 -1.022 10.936 C-1.035 9.939 -1.048 8.942 -1.061 7.915 C-1.068 7.013 -1.075 6.111 -1.082 5.182 C-1.091 4.394 -1.099 3.606 -1.107 2.794 C-1 1 -1 1 0 0 Z " fill="#383838" transform="translate(695,254)"/>
<path d="M0 0 C7.163 -0.299 13.342 0.579 18.984 5.234 C26.655 12.682 30.055 19.173 30.684 29.867 C30.739 34.421 30.469 38.734 29.527 43.207 C28.867 43.207 28.207 43.207 27.527 43.207 C27.197 45.517 26.867 47.827 26.527 50.207 C25.537 50.207 24.547 50.207 23.527 50.207 C23.527 51.197 23.527 52.187 23.527 53.207 C21.664 54.742 21.664 54.742 19.215 56.27 C18.414 56.776 17.614 57.283 16.789 57.805 C16.043 58.267 15.296 58.73 14.527 59.207 C13.537 59.867 12.547 60.527 11.527 61.207 C2.08 63.128 -6.091 61.935 -14.473 57.207 C-14.473 56.547 -14.473 55.887 -14.473 55.207 C-15.05 54.939 -15.628 54.671 -16.223 54.395 C-22.004 51.343 -22.004 51.343 -23.52 47.668 C-25.004 41.151 -25.77 34.874 -25.848 28.207 C-25.862 27.49 -25.875 26.772 -25.89 26.033 C-25.849 21.506 -25.027 18.896 -22.473 15.207 C-22.011 13.944 -22.011 13.944 -21.539 12.656 C-19.305 7.525 -14.335 3.429 -9.23 1.25 C-6.158 0.49 -3.146 0.263 0 0 Z " fill="#FCFCFC" transform="translate(1155.47265625,277.79296875)"/>
<path d="M0 0 C7.599 5.762 11.216 11.935 12.582 21.391 C13.998 31.98 14.167 40.153 7.816 49.285 C3.53 54.489 -0.796 58 -7.418 59.766 C-19.507 60.714 -26.443 58.346 -36.293 51.016 C-42.866 42.489 -42.386 30.309 -41.605 20.016 C-40.51 13.531 -37.61 8.351 -32.605 4.016 C-31.945 4.016 -31.285 4.016 -30.605 4.016 C-30.275 3.026 -29.945 2.036 -29.605 1.016 C-22.338 -3.829 -7.547 -4.808 0 0 Z " fill="#FCFCFC" transform="translate(1299.60546875,279.984375)"/>
<path d="M0 0 C6.424 -0.092 12.845 -0.172 19.269 -0.22 C21.452 -0.24 23.635 -0.267 25.819 -0.302 C28.964 -0.35 32.108 -0.373 35.254 -0.391 C36.224 -0.411 37.194 -0.432 38.193 -0.453 C45.142 -0.455 49.421 0.798 54.707 5.527 C60.598 13.042 60.633 19.699 60 29 C59.176 34.61 56.928 37.376 52.562 40.938 C48.216 44.166 44.881 45.129 39.507 45.114 C38.614 45.113 37.721 45.113 36.801 45.113 C35.872 45.108 34.942 45.103 33.984 45.098 C33.123 45.097 32.263 45.096 31.375 45.095 C28.167 45.089 24.958 45.075 21.75 45.062 C14.572 45.042 7.395 45.021 0 45 C0 30.15 0 15.3 0 0 Z " fill="#FBFBFB" transform="translate(998,236)"/>
<path d="M0 0 C4.489 1.678 7.266 4.211 10.5 7.688 C12.877 12.938 13.04 17.901 11.199 23.387 C10.251 25.426 9.384 27.227 8 29 C7.01 29.33 6.02 29.66 5 30 C5.141 31.959 5.288 33.917 5.438 35.875 C5.559 37.511 5.559 37.511 5.684 39.18 C5.83 41.947 5.83 41.947 7 44 C7.23 46.371 7.411 48.747 7.562 51.125 C7.688 53.047 7.688 53.047 7.816 55.008 C7.907 56.489 7.907 56.489 8 58 C3.458 60.271 -0.542 60.301 -5.5 60.25 C-6.62 60.262 -6.62 60.262 -7.762 60.273 C-11.958 60.259 -15.169 59.916 -19 58 C-17.193 45.388 -17.193 45.388 -15.875 40.625 C-14.96 36.835 -14.839 33.865 -15 30 C-15.99 29.67 -16.98 29.34 -18 29 C-19.648 26.398 -20 25.138 -20 22 C-20.99 21.67 -21.98 21.34 -23 21 C-23.569 10.145 -23.569 10.145 -20 6 C-19.571 5.462 -19.141 4.925 -18.699 4.371 C-13.437 -1.257 -7.297 -1.198 0 0 Z " fill="#F6F6F6" transform="translate(311,293)"/>
<path d="M0 0 C35.97 0 71.94 0 109 0 C113.174 8.348 109.359 18.674 109 28 C83.26 28 57.52 28 31 28 C31.33 28.99 31.66 29.98 32 31 C32.084 33.284 32.107 35.57 32.098 37.855 C32.096 38.517 32.095 39.179 32.093 39.86 C32.088 41.969 32.075 44.078 32.062 46.188 C32.057 47.619 32.053 49.051 32.049 50.482 C32.038 53.988 32.021 57.494 32 61 C33.833 60.983 33.833 60.983 35.703 60.965 C49.275 60.882 62.837 61.085 76.405 61.373 C78.432 61.416 80.458 61.457 82.485 61.497 C85.364 61.554 88.242 61.618 91.121 61.684 C92.002 61.7 92.884 61.717 93.792 61.734 C99.885 61.885 99.885 61.885 101 63 C101.1 64.915 101.131 66.833 101.133 68.75 C101.134 69.915 101.135 71.081 101.137 72.281 C101.133 73.508 101.129 74.736 101.125 76 C101.129 77.227 101.133 78.454 101.137 79.719 C101.135 80.884 101.134 82.049 101.133 83.25 C101.132 84.328 101.131 85.405 101.129 86.516 C101 89 101 89 100 90 C97.853 90.094 95.702 90.117 93.552 90.114 C92.543 90.114 92.543 90.114 91.513 90.114 C89.278 90.113 87.043 90.105 84.809 90.098 C83.263 90.096 81.717 90.094 80.172 90.093 C76.096 90.09 72.021 90.08 67.946 90.069 C63.06 90.057 58.174 90.052 53.288 90.046 C45.859 90.037 38.429 90.017 31 90 C31 101.88 31 113.76 31 126 C31.99 125.505 31.99 125.505 33 125 C35.437 124.931 37.843 124.923 40.28 124.962 C41.029 124.97 41.779 124.978 42.551 124.987 C45.036 125.015 47.52 125.05 50.004 125.086 C51.725 125.108 53.446 125.129 55.167 125.15 C58.776 125.196 62.385 125.245 65.994 125.297 C70.63 125.363 75.266 125.42 79.903 125.475 C83.457 125.518 87.011 125.565 90.565 125.614 C92.275 125.637 93.985 125.658 95.695 125.679 C98.08 125.707 100.465 125.742 102.85 125.779 C103.563 125.786 104.276 125.793 105.011 125.801 C109.886 125.886 109.886 125.886 111 127 C111.088 129.073 111.107 131.148 111.098 133.223 C111.093 135.113 111.093 135.113 111.088 137.041 C111.08 138.382 111.071 139.722 111.062 141.062 C111.057 142.407 111.053 143.751 111.049 145.096 C111.037 148.397 111.021 151.699 111 155 C104.032 155.027 97.064 155.043 90.095 155.055 C87.755 155.06 85.415 155.066 83.075 155.075 C55.369 155.179 27.712 154.504 0 154 C0 103.18 0 52.36 0 0 Z M1 1 C1 51.16 1 101.32 1 153 C36.64 153 72.28 153 109 153 C109 144.75 109 136.5 109 128 C82.93 128 56.86 128 30 128 C30.33 115.46 30.66 102.92 31 90 C53.44 89.67 75.88 89.34 99 89 C99 80.75 99 72.5 99 64 C76.23 64 53.46 64 30 64 C30 51.46 30 38.92 30 26 C48.5 26.5 48.5 26.5 54.229 26.658 C68.503 27.041 82.732 27.243 97 26.5 C101.95 26.252 101.95 26.252 107 26 C107 17.75 107 9.5 107 1 C72.02 1 37.04 1 1 1 Z " fill="#858584" transform="translate(504,209)"/>
<path d="M0 0 C0 0.66 0 1.32 0 2 C0.598 2.268 1.196 2.536 1.812 2.812 C5.261 4.685 6.645 6.16 8.188 9.812 C9.009 13.037 9.231 15.689 9 19 C7.346 20.654 5.404 20.127 3.129 20.129 C1.572 20.134 1.572 20.134 -0.016 20.139 C-1.71 20.136 -1.71 20.136 -3.438 20.133 C-5.163 20.134 -5.163 20.134 -6.924 20.136 C-9.361 20.136 -11.799 20.135 -14.237 20.13 C-17.984 20.125 -21.73 20.13 -25.477 20.137 C-27.839 20.136 -30.201 20.135 -32.562 20.133 C-33.692 20.135 -34.821 20.137 -35.984 20.139 C-37.541 20.134 -37.541 20.134 -39.129 20.129 C-40.047 20.129 -40.966 20.128 -41.912 20.127 C-44 20 -44 20 -45 19 C-45.134 12.696 -42.401 8.987 -38.332 4.312 C-29.07 -4.872 -11.303 -6.944 0 0 Z " fill="#F4F4F4" transform="translate(908,278)"/>
<path d="M0 0 C3.857 2.47 6.147 5.509 7.629 9.836 C9.891 23.028 9.891 23.028 6.613 28.18 C1.01 33.066 -4.886 34.509 -12.195 34.391 C-16.445 33.799 -19.977 32.075 -23 29 C-23 28.01 -23 27.02 -23 26 C-23.66 26 -24.32 26 -25 26 C-27.62 21.463 -27.707 17.126 -27 12 C-25.062 9.062 -25.062 9.062 -23 7 C-22.67 6.01 -22.34 5.02 -22 4 C-21.01 4 -20.02 4 -19 4 C-19 3.34 -19 2.68 -19 2 C-13.529 -1.647 -6.325 -0.946 0 0 Z " fill="#3D3C3C" transform="translate(718,202)"/>
<path d="M0 0 C0.99 0.99 0.99 0.99 2 2 C1.67 10.58 1.34 19.16 1 28 C-24.74 28 -50.48 28 -77 28 C-76.67 28.99 -76.34 29.98 -76 31 C-75.916 33.284 -75.893 35.57 -75.902 37.855 C-75.904 38.848 -75.904 38.848 -75.907 39.86 C-75.912 41.969 -75.925 44.078 -75.938 46.188 C-75.943 47.619 -75.947 49.051 -75.951 50.482 C-75.962 53.988 -75.979 57.494 -76 61 C-74.167 60.983 -74.167 60.983 -72.297 60.965 C-58.725 60.882 -45.163 61.085 -31.595 61.373 C-29.568 61.416 -27.542 61.457 -25.515 61.497 C-22.636 61.554 -19.758 61.618 -16.879 61.684 C-15.998 61.7 -15.116 61.717 -14.208 61.734 C-8.115 61.885 -8.115 61.885 -7 63 C-6.9 64.915 -6.869 66.833 -6.867 68.75 C-6.866 69.915 -6.865 71.081 -6.863 72.281 C-6.867 73.508 -6.871 74.736 -6.875 76 C-6.871 77.227 -6.867 78.454 -6.863 79.719 C-6.865 80.884 -6.866 82.049 -6.867 83.25 C-6.868 84.328 -6.869 85.405 -6.871 86.516 C-7 89 -7 89 -8 90 C-10.147 90.094 -12.298 90.117 -14.448 90.114 C-15.457 90.114 -15.457 90.114 -16.487 90.114 C-18.722 90.113 -20.957 90.105 -23.191 90.098 C-24.737 90.096 -26.283 90.094 -27.828 90.093 C-31.904 90.09 -35.979 90.08 -40.054 90.069 C-44.21 90.058 -48.366 90.054 -52.521 90.049 C-60.681 90.038 -68.84 90.021 -77 90 C-77 89.67 -77 89.34 -77 89 C-54.56 89 -32.12 89 -9 89 C-9 80.75 -9 72.5 -9 64 C-31.77 64 -54.54 64 -78 64 C-78 51.46 -78 38.92 -78 26 C-51.97 25.905 -26.015 26.205 0 27 C0 18.09 0 9.18 0 0 Z " fill="#A2A2A2" transform="translate(612,209)"/>
<path d="M0 0 C1.563 0.008 1.563 0.008 3.158 0.016 C4.283 0.019 5.407 0.022 6.566 0.026 C7.75 0.034 8.934 0.042 10.154 0.051 C11.342 0.056 12.53 0.06 13.754 0.065 C16.7 0.077 19.646 0.093 22.592 0.114 C22.592 0.444 22.592 0.774 22.592 1.114 C14.672 1.444 6.752 1.774 -1.408 2.114 C-1.738 37.424 -2.068 72.734 -2.408 109.114 C6.172 109.114 14.752 109.114 23.592 109.114 C23.576 107.035 23.56 104.956 23.544 102.815 C23.494 95.926 23.461 89.037 23.436 82.147 C23.421 77.973 23.399 73.799 23.365 69.624 C23.332 65.591 23.315 61.558 23.307 57.525 C23.301 55.991 23.291 54.457 23.274 52.923 C23.12 37.738 23.12 37.738 26.592 31.114 C28.779 29.614 28.779 29.614 30.592 29.114 C29.941 30.114 29.29 31.115 28.619 32.146 C26.411 36.03 26.111 39.091 26.153 43.594 C26.154 44.305 26.155 45.016 26.156 45.749 C26.164 48.077 26.2 50.403 26.236 52.731 C26.246 54.355 26.254 55.979 26.26 57.604 C26.281 61.861 26.325 66.118 26.375 70.376 C26.451 77.211 26.488 84.047 26.531 90.882 C26.548 93.271 26.575 95.66 26.602 98.05 C26.615 99.503 26.629 100.957 26.642 102.41 C26.663 104.32 26.663 104.32 26.685 106.269 C26.592 109.114 26.592 109.114 25.592 110.114 C23.446 110.201 21.298 110.22 19.15 110.211 C17.845 110.208 16.54 110.205 15.195 110.201 C13.806 110.193 12.418 110.185 11.029 110.176 C9.636 110.171 8.244 110.166 6.851 110.162 C3.431 110.151 0.011 110.134 -3.408 110.114 C-3.565 100.331 -3.713 90.549 -3.851 80.767 C-3.916 76.221 -3.983 71.675 -4.057 67.129 C-4.344 49.275 -4.591 31.44 -3.998 13.59 C-3.957 12.327 -3.917 11.064 -3.874 9.763 C-3.5 0.165 -3.5 0.165 0 0 Z M22.592 1.114 C22.922 1.114 23.252 1.114 23.592 1.114 C23.592 4.414 23.592 7.714 23.592 11.114 C24.252 11.114 24.912 11.114 25.592 11.114 C25.592 11.774 25.592 12.434 25.592 13.114 C24.602 13.114 23.612 13.114 22.592 13.114 C22.592 9.154 22.592 5.194 22.592 1.114 Z M31.592 27.114 C33.592 28.114 33.592 28.114 33.592 28.114 Z " fill="#898988" transform="translate(1365.408447265625,252.886474609375)"/>
<path d="M0 0 C0.66 0 1.32 0 2 0 C2.075 0.626 2.15 1.253 2.227 1.898 C2.629 4.397 3.089 6.637 4 9 C6.728 10.604 6.728 10.604 10 11 C12 11.667 14 12.333 16 13 C16 13.66 16 14.32 16 15 C15.241 15.161 14.481 15.322 13.699 15.488 C10.468 16.373 7.865 17.247 5 19 C3.163 22.566 2.472 26.035 2 30 C0.68 29.67 -0.64 29.34 -2 29 C-2.124 27.175 -2.124 27.175 -2.25 25.312 C-2.659 23.04 -2.659 23.04 -4 21 C-7.816 18.763 -11.794 17.338 -16 16 C-16 15.01 -16 14.02 -16 13 C-14.377 12.329 -12.751 11.663 -11.125 11 C-10.22 10.629 -9.315 10.257 -8.383 9.875 C-6 9 -6 9 -4 9 C-3.67 7.68 -3.34 6.36 -3 5 C-2.34 5 -1.68 5 -1 5 C-0.67 3.35 -0.34 1.7 0 0 Z " fill="#E5E5E5" transform="translate(356,253)"/>
<path d="M0 0 C0.33 0 0.66 0 1 0 C1 11.88 1 23.76 1 36 C1.99 35.505 1.99 35.505 3 35 C5.437 34.931 7.843 34.923 10.28 34.962 C11.029 34.97 11.779 34.978 12.551 34.987 C15.036 35.015 17.52 35.05 20.004 35.086 C21.725 35.108 23.446 35.129 25.167 35.15 C28.776 35.196 32.385 35.245 35.994 35.297 C40.63 35.363 45.266 35.42 49.903 35.475 C53.457 35.518 57.011 35.565 60.565 35.614 C62.275 35.637 63.985 35.658 65.695 35.679 C68.08 35.707 70.465 35.742 72.85 35.779 C73.92 35.79 73.92 35.79 75.011 35.801 C79.886 35.886 79.886 35.886 81 37 C81 46.24 81 55.48 81 65 C62.52 65 44.04 65 25 65 C25 64.67 25 64.34 25 64 C42.82 64 60.64 64 79 64 C79 55.42 79 46.84 79 38 C52.93 38 26.86 38 0 38 C0 25.46 0 12.92 0 0 Z " fill="#A4A4A4" transform="translate(534,299)"/>
<path d="M0 0 C2.584 -0.108 5.164 -0.187 7.75 -0.25 C8.48 -0.284 9.209 -0.317 9.961 -0.352 C13.671 -0.419 15.572 -0.343 18.516 2.016 C19.005 2.67 19.495 3.325 20 4 C18.743 3.524 18.743 3.524 17.461 3.039 C13.766 1.93 10.471 1.593 6.625 1.375 C5.38 1.3 4.135 1.225 2.852 1.148 C1.44 1.075 1.44 1.075 0 1 C0 0.67 0 0.34 0 0 Z M20 4 C23.638 6.425 24.778 8.94 26 13 C26.361 16.575 26.361 16.575 26.341 20.404 C26.341 21.107 26.341 21.811 26.342 22.535 C26.34 24.835 26.317 27.134 26.293 29.434 C26.287 31.038 26.283 32.642 26.28 34.246 C26.269 38.45 26.239 42.654 26.206 46.857 C26.175 51.154 26.162 55.451 26.146 59.748 C26.114 68.166 26.062 76.583 26 85 C34.58 85 43.16 85 52 85 C51.984 82.982 51.969 80.964 51.952 78.885 C51.903 72.195 51.869 65.506 51.845 58.816 C51.829 54.763 51.808 50.71 51.774 46.656 C51.741 42.74 51.723 38.824 51.715 34.907 C51.71 33.418 51.699 31.929 51.683 30.439 C51.602 22.763 51.556 16.023 55 9 C56.329 11.657 55.728 12.804 55.075 15.683 C53.696 22.815 53.748 29.837 53.805 37.074 C53.808 38.493 53.811 39.913 53.813 41.332 C53.821 45.029 53.84 48.726 53.863 52.423 C53.887 56.88 53.896 61.336 53.908 65.793 C53.927 72.528 53.965 79.264 54 86 C44.43 86 34.86 86 25 86 C25 62.24 25 38.48 25 14 C24.34 14 23.68 14 23 14 C22.01 10.7 21.02 7.4 20 4 Z " fill="#7C7C7C" transform="translate(1402,277)"/>
<path d="M0 0 C6.475 0.925 9.363 1.363 13.812 5.812 C15.726 9.336 15.374 12.365 14.5 16.188 C11.91 19.317 8.859 20.266 5 21 C-0.329 21.342 -5.667 21.175 -11 21 C-11 20.67 -11 20.34 -11 20 C-7.37 19.67 -3.74 19.34 0 19 C0 12.73 0 6.46 0 0 Z " fill="#D9D9D9" transform="translate(1587,322)"/>
<path d="M0 0 C2.062 0.438 2.062 0.438 4 1 C3.01 1.33 2.02 1.66 1 2 C1.002 2.998 1.004 3.997 1.007 5.026 C1.027 14.484 1.042 23.942 1.052 33.401 C1.057 38.262 1.064 43.124 1.075 47.985 C1.086 52.686 1.092 57.387 1.095 62.088 C1.097 63.872 1.1 65.656 1.106 67.439 C1.135 77.351 0.98 87.128 0 97 C-0.33 97 -0.66 97 -1 97 C-1.023 84.5 -1.041 72.001 -1.052 59.501 C-1.057 53.698 -1.064 47.894 -1.075 42.091 C-1.086 36.495 -1.092 30.9 -1.095 25.304 C-1.097 23.164 -1.1 21.024 -1.106 18.885 C-1.113 15.898 -1.114 12.912 -1.114 9.926 C-1.117 9.032 -1.121 8.138 -1.124 7.217 C-1.114 1.114 -1.114 1.114 0 0 Z " fill="#626262" transform="translate(403,268)"/>
<path d="M0 0 C0.99 0.495 0.99 0.495 2 1 C4 11 4 11 4 33 C-23.39 33 -50.78 33 -79 33 C-78.34 35.97 -77.68 38.94 -77 42 C-77.99 41.01 -78.98 40.02 -80 39 C-80 36.69 -80 34.38 -80 32 C-52.94 32 -25.88 32 2 32 C1.34 21.44 0.68 10.88 0 0 Z M-76 44 C-74.68 45.32 -73.36 46.64 -72 48 C-73.32 47.34 -74.64 46.68 -76 46 C-76 45.34 -76 44.68 -76 44 Z " fill="#9E9E9D" transform="translate(942,285)"/>
<path d="M0 0 C2.5 2.5 2.297 3.421 2.312 6.875 C2.338 8.171 2.338 8.171 2.363 9.492 C1.938 12.431 0.941 13.798 -1 16 C-1.66 15.67 -2.32 15.34 -3 15 C-2.263 14.188 -2.263 14.188 -1.512 13.359 C0.367 10.428 0.311 8.697 0.188 5.25 C0.16 4.265 0.133 3.28 0.105 2.266 C0.053 1.144 0.053 1.144 0 0 Z M-25 13 C-24.01 13.33 -23.02 13.66 -22 14 C-22.66 14 -23.32 14 -24 14 C-23.998 14.996 -23.996 15.992 -23.993 17.019 C-23.973 26.462 -23.958 35.906 -23.948 45.349 C-23.943 50.203 -23.936 55.056 -23.925 59.91 C-23.914 64.604 -23.908 69.298 -23.905 73.993 C-23.903 75.773 -23.9 77.553 -23.894 79.334 C-23.825 102.9 -23.825 102.9 -25 110 C-25.99 110.495 -25.99 110.495 -27 111 C-26.931 110.071 -26.863 109.142 -26.792 108.186 C-26.043 97.286 -25.79 86.423 -25.684 75.5 C-25.663 73.684 -25.642 71.869 -25.621 70.053 C-25.566 65.332 -25.516 60.611 -25.468 55.889 C-25.417 51.049 -25.362 46.208 -25.307 41.367 C-25.2 31.912 -25.098 22.456 -25 13 Z M-22 14 C-19.038 14.613 -17.619 15.254 -15 17 C-10.814 17.199 -7.014 17.338 -3 16 C-6.794 19.967 -6.794 19.967 -9.988 20.055 C-14.481 19.707 -16.493 19.425 -20.062 16.438 C-20.702 15.633 -21.341 14.829 -22 14 Z " fill="#B7B7B7" transform="translate(429,257)"/>
<path d="M0 0 C1.98 0.495 1.98 0.495 4 1 C4 33.01 4 65.02 4 98 C1.346 95.346 1.764 93.396 1.751 89.786 C1.758 88.914 1.766 88.042 1.773 87.144 C1.773 86.227 1.772 85.31 1.772 84.365 C1.773 81.324 1.789 78.283 1.805 75.242 C1.808 73.138 1.811 71.033 1.813 68.928 C1.821 63.381 1.841 57.835 1.863 52.288 C1.883 46.631 1.892 40.974 1.902 35.316 C1.924 24.211 1.958 13.105 2 2 C1.01 1.67 0.02 1.34 -1 1 C-0.67 0.67 -0.34 0.34 0 0 Z M-4 2 C-3.01 2.33 -2.02 2.66 -1 3 C-5.927 7.193 -8.793 8.555 -15.277 8.176 C-15.846 8.118 -16.414 8.06 -17 8 C-17 7.34 -17 6.68 -17 6 C-17.66 5.67 -18.32 5.34 -19 5 C-18.252 5.035 -17.505 5.07 -16.734 5.105 C-15.75 5.133 -14.765 5.16 -13.75 5.188 C-12.775 5.222 -11.801 5.257 -10.797 5.293 C-7.586 4.957 -6.487 3.939 -4 2 Z " fill="#7D7D7D" transform="translate(205,268)"/>
<path d="M0 0 C3.067 4.6 2.329 9.213 2.312 14.625 C2.329 15.681 2.345 16.736 2.361 17.824 C2.368 28.958 -0.73 39.16 -8.312 47.562 C-8.869 48.037 -9.426 48.511 -10 49 C-10.66 48.67 -11.32 48.34 -12 48 C-10.886 46.732 -10.886 46.732 -9.75 45.438 C-5.918 40.822 -2.739 36.094 -2 30 C-1.34 30 -0.68 30 0 30 C0 20.1 0 10.2 0 0 Z M-13 49 C-13 49.99 -13 50.98 -13 52 C-15.25 54.25 -15.25 54.25 -18 56 C-20.312 55.75 -20.312 55.75 -22 55 C-20.02 54.34 -18.04 53.68 -16 53 C-16 52.34 -16 51.68 -16 51 C-15.01 50.34 -14.02 49.68 -13 49 Z M-22 57 C-22.99 57 -23.98 57 -25 57 C-25 57.66 -25 58.32 -25 59 C-27.5 60.625 -27.5 60.625 -30 62 C-29.411 62.915 -28.822 63.83 -28.215 64.773 C-27.455 65.974 -26.696 67.174 -25.938 68.375 C-25.548 68.978 -25.158 69.582 -24.756 70.203 C-23.775 71.765 -22.881 73.38 -22 75 C-22.33 75.66 -22.66 76.32 -23 77 C-24.106 75.439 -25.21 73.876 -26.312 72.312 C-26.927 71.442 -27.542 70.572 -28.176 69.676 C-31.763 64.414 -31.763 64.414 -33 62 C-32 59 -32 59 -29.188 57.25 C-26.036 56.014 -25.031 55.718 -22 57 Z " fill="#979797" transform="translate(1087,243)"/>
<path d="M0 0 C6.424 -0.092 12.845 -0.172 19.269 -0.22 C21.452 -0.24 23.635 -0.267 25.819 -0.302 C28.964 -0.35 32.108 -0.373 35.254 -0.391 C36.224 -0.411 37.194 -0.432 38.193 -0.453 C45.236 -0.455 49.394 0.892 54.812 5.562 C56 7 56 7 58 10 C57.625 12.188 57.625 12.188 57 14 C56.613 13.457 56.227 12.915 55.828 12.355 C55.047 11.282 55.047 11.282 54.25 10.188 C53.74 9.48 53.229 8.772 52.703 8.043 C49.853 4.624 47.345 2.876 43 2 C41.566 1.891 40.128 1.825 38.69 1.795 C37.85 1.775 37.009 1.755 36.143 1.734 C35.245 1.718 34.347 1.701 33.422 1.684 C32.495 1.663 31.569 1.642 30.614 1.621 C27.659 1.555 24.705 1.496 21.75 1.438 C19.745 1.394 17.74 1.351 15.734 1.307 C10.823 1.199 5.912 1.1 1 1 C1 14.53 1 28.06 1 42 C0.67 42 0.34 42 0 42 C0 28.14 0 14.28 0 0 Z " fill="#D0D0D0" transform="translate(998,236)"/>
<path d="M0 0 C0.33 0 0.66 0 1 0 C4.781 15.275 2.483 33.776 -5.148 47.258 C-6.91 49.866 -8.616 51.95 -11 54 C-11.66 54 -12.32 54 -13 54 C-13 54.66 -13 55.32 -13 56 C-14.626 57.382 -16.293 58.719 -18 60 C-18.66 59.67 -19.32 59.34 -20 59 C-18.381 57.327 -16.755 55.662 -15.125 54 C-14.22 53.072 -13.315 52.144 -12.383 51.188 C-10 49 -10 49 -8 49 C-7.732 48.154 -7.464 47.309 -7.188 46.438 C-5.952 42.861 -4.523 39.461 -3 36 C-2.34 36 -1.68 36 -1 36 C-0.06 23.98 0.111 12.053 0 0 Z " fill="#858585" transform="translate(1213,294)"/>
<path d="M0 0 C0.866 0.464 0.866 0.464 1.75 0.938 C9.625 4.656 19.636 3.556 28 2 C29.192 10.343 29.093 18.593 29 27 C25.444 28.518 22.887 29.222 19 29 C22.168 27.24 24.244 26.751 28 26 C27.67 18.74 27.34 11.48 27 4 C23.7 4.66 20.4 5.32 17 6 C12.099 6.557 7.715 6.861 3.438 4.125 C1 2 1 2 0 0 Z " fill="#949494" transform="translate(793,334)"/>
<path d="M0 0 C2.584 -0.108 5.164 -0.187 7.75 -0.25 C8.48 -0.284 9.209 -0.317 9.961 -0.352 C13.671 -0.419 15.572 -0.343 18.516 2.016 C19.005 2.67 19.495 3.325 20 4 C18.743 3.524 18.743 3.524 17.461 3.039 C13.766 1.93 10.471 1.593 6.625 1.375 C5.38 1.3 4.135 1.225 2.852 1.148 C1.44 1.075 1.44 1.075 0 1 C0 0.67 0 0.34 0 0 Z M20 4 C23.743 6.495 24.987 8.732 26 13 C26.357 17.983 26.283 22.947 26.188 27.938 C26.172 29.303 26.159 30.668 26.146 32.033 C26.111 35.356 26.062 38.678 26 42 C25.67 42 25.34 42 25 42 C25 32.76 25 23.52 25 14 C24.34 14 23.68 14 23 14 C22.01 10.7 21.02 7.4 20 4 Z " fill="#797979" transform="translate(1402,277)"/>
<path d="M0 0 C0.33 0 0.66 0 1 0 C1.427 10.121 1.523 18.652 -3 28 C-3.66 28 -4.32 28 -5 28 C-5.268 28.639 -5.536 29.279 -5.812 29.938 C-7 32 -7 32 -10 33 C-10 33.66 -10 34.32 -10 35 C-10.66 34.67 -11.32 34.34 -12 34 C-11.278 33.196 -10.556 32.391 -9.812 31.562 C-3.486 23.975 -0.999 16.987 -0.438 7.25 C-0.394 6.553 -0.351 5.855 -0.307 5.137 C-0.201 3.425 -0.1 1.712 0 0 Z M-14 35 C-13.34 35.33 -12.68 35.66 -12 36 C-13.965 37.068 -15.969 38.066 -18 39 C-18.66 38.67 -19.32 38.34 -20 38 C-18.035 36.932 -16.031 35.934 -14 35 Z M-24 39 C-20 40 -20 40 -20 40 Z " fill="#A7A7A6" transform="translate(1629,322)"/>
<path d="M0 0 C-1.649 0.004 -1.649 0.004 -3.332 0.008 C-12.703 0.188 -20.412 0.865 -28 7 C-30.058 9.262 -31.454 11.335 -33 14 C-33.33 12.68 -33.66 11.36 -34 10 C-25.317 1.188 -12.454 -7.137 0 0 Z " fill="#979797" transform="translate(899,275)"/>
<path d="M0 0 C5.031 6.175 5.28 11.416 5.195 19.113 C5.192 20.083 5.19 21.052 5.187 22.051 C5.176 25.139 5.15 28.225 5.125 31.312 C5.115 33.41 5.106 35.507 5.098 37.604 C5.076 42.736 5.041 47.868 5 53 C4.67 53 4.34 53 4 53 C3.98 51.866 3.96 50.731 3.94 49.563 C3.863 45.319 3.775 41.075 3.683 36.832 C3.645 35.002 3.61 33.172 3.578 31.342 C3.532 28.698 3.474 26.054 3.414 23.41 C3.403 22.604 3.391 21.797 3.379 20.966 C3.238 15.431 2.34 10.363 1 5 C0.66 3.335 0.323 1.669 0 0 Z " fill="#4C4B4C" transform="translate(1514,268)"/>
<path d="M0 0 C3.067 4.6 2.329 9.213 2.312 14.625 C2.329 15.681 2.345 16.736 2.361 17.824 C2.367 26.553 0.748 33.51 -3.688 41.062 C-4.124 41.817 -4.561 42.571 -5.012 43.348 C-5.338 43.893 -5.664 44.438 -6 45 C-6.33 44.34 -6.66 43.68 -7 43 C-6.307 41.284 -5.605 39.57 -4.836 37.887 C-3.698 35.319 -2.848 32.675 -2 30 C-1.34 30 -0.68 30 0 30 C0 20.1 0 10.2 0 0 Z " fill="#AAAAA9" transform="translate(1087,243)"/>
<path d="M0 0 C4.03 1.399 6.854 3.187 9.57 6.469 C9.24 7.129 8.91 7.789 8.57 8.469 C8.075 7.85 7.58 7.231 7.07 6.594 C0.004 0.587 -10.711 2.278 -19.43 2.469 C-13.457 -1.513 -7.001 -1.531 0 0 Z M9.57 8.469 C10.56 8.799 11.55 9.129 12.57 9.469 C12.24 10.129 11.91 10.789 11.57 11.469 C10.91 10.479 10.25 9.489 9.57 8.469 Z " fill="#969696" transform="translate(1166.4296875,276.53125)"/>
<path d="M0 0 C0.971 -0.014 1.941 -0.028 2.941 -0.043 C5.438 0.188 5.438 0.188 7.438 2.188 C-0.482 2.683 -0.482 2.683 -8.562 3.188 C-8.562 2.528 -8.562 1.868 -8.562 1.188 C-5.48 0.16 -3.231 0.022 0 0 Z M-11.562 3.188 C-10.572 3.518 -9.582 3.847 -8.562 4.188 C-9.222 4.188 -9.883 4.188 -10.562 4.188 C-10.562 4.847 -10.562 5.507 -10.562 6.188 C-11.553 5.857 -12.543 5.528 -13.562 5.188 C-12.903 4.528 -12.242 3.868 -11.562 3.188 Z M-14.562 6.188 C-14.232 7.178 -13.903 8.167 -13.562 9.188 C-14.181 9.868 -14.8 10.549 -15.438 11.25 C-18.414 15.364 -18.37 19.22 -18.562 24.188 C-18.893 24.188 -19.222 24.188 -19.562 24.188 C-20.008 17.229 -20.249 12.584 -15.562 7.188 C-15.232 6.857 -14.903 6.528 -14.562 6.188 Z " fill="#A9A9A9" transform="translate(709.5625,199.8125)"/>
<path d="M0 0 C6.875 0.875 6.875 0.875 8 2 C14.974 3.942 21.803 4.284 29 4.188 C30.41 4.187 30.41 4.187 31.848 4.186 C36.582 4.328 36.582 4.328 41 3 C43 2.96 45 2.957 47 3 C41.17 6.886 35.182 6.183 28.375 6.188 C27.332 6.2 26.289 6.212 25.215 6.225 C16.228 6.241 7.915 5.582 0 1 C0 0.67 0 0.34 0 0 Z " fill="#595959" transform="translate(865,359)"/>
<path d="M0 0 C0.33 0 0.66 0 1 0 C3.9 13.744 3.664 30.053 -2 43 C-3.304 38.775 -2.268 36.226 -1 32 C0.123 25.155 0.116 18.425 0.062 11.5 C0.058 10.391 0.053 9.283 0.049 8.141 C0.037 5.427 0.021 2.714 0 0 Z " fill="#AAAAA9" transform="translate(1341,291)"/>
<path d="M0 0 C2.31 0.33 4.62 0.66 7 1 C7.33 2.65 7.66 4.3 8 6 C4.04 6.99 0.08 7.98 -4 9 C-4.99 12.63 -5.98 16.26 -7 20 C-8.32 20.33 -9.64 20.66 -11 21 C-11 20.01 -11 19.02 -11 18 C-10.01 18.33 -9.02 18.66 -8 19 C-7.814 17.144 -7.814 17.144 -7.625 15.25 C-6.818 9.232 -6.818 9.232 -5 7 C-1.009 4.931 1.476 4 6 4 C6 3.34 6 2.68 6 2 C3.03 1.505 3.03 1.505 0 1 C0 0.67 0 0.34 0 0 Z " fill="#767676" transform="translate(366,264)"/>
<path d="M0 0 C0.66 0.33 1.32 0.66 2 1 C2.578 16.242 2.578 16.242 -1 23 C-1.99 23.33 -2.98 23.66 -4 24 C-3.512 21.804 -2.949 19.891 -2 17.844 C-0.756 14.307 -0.545 10.897 -0.375 7.188 C-0.336 6.495 -0.298 5.802 -0.258 5.088 C-0.164 3.392 -0.081 1.696 0 0 Z M-8 25 C-7.01 25.33 -6.02 25.66 -5 26 C-7.25 28.062 -7.25 28.062 -10 30 C-12.312 29.75 -12.312 29.75 -14 29 C-12.02 28.34 -10.04 27.68 -8 27 C-8 26.34 -8 25.68 -8 25 Z " fill="#9B9B9B" transform="translate(1056,250)"/>
<path d="M0 0 C0.831 0.002 1.662 0.004 2.518 0.006 C3.806 0.024 3.806 0.024 5.121 0.043 C5.984 0.044 6.847 0.044 7.736 0.045 C14.136 0.09 14.136 0.09 17.559 1.23 C17.559 1.89 17.559 2.55 17.559 3.23 C18.157 3.334 18.755 3.437 19.371 3.543 C21.841 4.319 22.881 5.301 24.559 7.23 C21.155 6.172 18.545 5.221 15.559 3.23 C12.969 2.925 10.469 2.72 7.871 2.605 C7.189 2.567 6.506 2.528 5.803 2.488 C1.051 2.237 -3.683 2.198 -8.441 2.23 C-5.493 0.543 -3.388 -0.018 0 0 Z " fill="#8F8F8F" transform="translate(1480.44140625,250.76953125)"/>
<path d="M0 0 C1.5 1.312 1.5 1.312 3 3 C3 3.99 3 4.98 3 6 C3.66 6 4.32 6 5 6 C6.691 7.645 6.691 7.645 8.562 9.812 C9.183 10.52 9.803 11.228 10.441 11.957 C12 14 12 14 13 17 C13.959 17.217 13.959 17.217 14.938 17.438 C17 18 17 18 18.25 20.062 C18.497 20.702 18.745 21.341 19 22 C15.843 20.574 13.42 18.837 10.812 16.562 C9.77 15.667 9.77 15.667 8.707 14.754 C7 13 7 13 6 10 C5.34 10 4.68 10 4 10 C1.161 6.325 0 4.731 0 0 Z " fill="#A0A0A0" transform="translate(1234,335)"/>
<path d="M0 0 C1.358 2.716 0.604 4.028 0 7 C-0.762 18.661 0.635 28.837 4 40 C3.34 40 2.68 40 2 40 C1.517 38.606 1.039 37.209 0.562 35.812 C0.162 34.647 0.162 34.647 -0.246 33.457 C-2.093 27.438 -2.183 21.747 -2.188 15.5 C-2.2 14.563 -2.212 13.626 -2.225 12.66 C-2.243 4.184 -2.243 4.184 0 0 Z " fill="#AFAFAE" transform="translate(835,293)"/>
<path d="M0 0 C2.5 2.5 2.297 3.421 2.312 6.875 C2.338 8.171 2.338 8.171 2.363 9.492 C1.938 12.431 0.941 13.798 -1 16 C-1.66 15.67 -2.32 15.34 -3 15 C-2.263 14.188 -2.263 14.188 -1.512 13.359 C0.367 10.428 0.311 8.697 0.188 5.25 C0.16 4.265 0.133 3.28 0.105 2.266 C0.053 1.144 0.053 1.144 0 0 Z M-21 14 C-16.125 15.875 -16.125 15.875 -15 17 C-8.915 17.234 -8.915 17.234 -3 16 C-6.795 19.967 -6.795 19.967 -10.023 20.055 C-16.435 19.565 -16.435 19.565 -19.562 16.438 C-20.274 15.231 -20.274 15.231 -21 14 Z " fill="#9F9F9E" transform="translate(429,257)"/>
<path d="M0 0 C0.99 1.485 0.99 1.485 2 3 C1.5 2.674 1 2.348 0.484 2.012 C-2.917 0.627 -6.14 0.746 -9.75 0.812 C-10.463 0.819 -11.176 0.825 -11.91 0.832 C-16.683 0.902 -21.295 1.216 -26 2 C-22.19 -5.62 -6.488 -2.802 0 0 Z M-28 2 C-26 3 -26 3 -26 3 Z " fill="#848483" transform="translate(1298,278)"/>
<path d="M0 0 C1.562 1.812 1.562 1.812 3 4 C2.67 4.99 2.34 5.98 2 7 C0 5 0 5 -0.125 2.375 C-0.084 1.591 -0.043 0.808 0 0 Z M3 7 C4.98 7.495 4.98 7.495 7 8 C7.248 13.773 6.337 18.834 5 24.438 C4.809 25.264 4.618 26.091 4.422 26.943 C3.955 28.964 3.478 30.982 3 33 C2.67 33 2.34 33 2 33 C1.663 27.042 2.564 22.306 4.344 16.613 C5.019 13.923 5.263 11.76 5 9 C4.34 8.34 3.68 7.68 3 7 Z " fill="#9D9D9D" transform="translate(290,315)"/>
<path d="M0 0 C1.199 3.728 1.064 7.233 1 11.125 C0.927 21.048 1.811 29.572 5 39 C4.01 38.67 3.02 38.34 2 38 C2 36.02 2 34.04 2 32 C1.34 32 0.68 32 0 32 C-0.758 24.976 -1.107 17.998 -1.125 10.938 C-1.13 10.2 -1.134 9.462 -1.139 8.701 C-1.13 5.534 -1.009 3.026 0 0 Z " fill="#848484" transform="translate(1229,295)"/>
<path d="M0 0 C0.66 0.33 1.32 0.66 2 1 C0.405 2.2 -1.201 3.385 -2.812 4.562 C-3.706 5.224 -4.599 5.885 -5.52 6.566 C-6.338 7.039 -7.157 7.513 -8 8 C-8.99 7.67 -9.98 7.34 -11 7 C-9.215 5.803 -7.422 4.618 -5.625 3.438 C-4.627 2.776 -3.63 2.115 -2.602 1.434 C-1.743 0.961 -0.885 0.487 0 0 Z M-13 8 C-12.34 8.33 -11.68 8.66 -11 9 C-12.761 10.367 -14.534 11.718 -16.312 13.062 C-17.299 13.817 -18.285 14.571 -19.301 15.348 C-20.637 16.166 -20.637 16.166 -22 17 C-22.99 16.67 -23.98 16.34 -25 16 C-23.376 14.853 -21.751 13.707 -20.125 12.562 C-19.22 11.924 -18.315 11.286 -17.383 10.629 C-15 9 -15 9 -13 8 Z M-27 17 C-25 18 -25 18 -25 18 Z " fill="#707070" transform="translate(258,205)"/>
<path d="M0 0 C-8.649 5.526 -20.12 4.158 -30 4 C-30 3.67 -30 3.34 -30 3 C-29.146 2.925 -29.146 2.925 -28.275 2.848 C-25.662 2.614 -23.05 2.37 -20.438 2.125 C-19.542 2.046 -18.647 1.968 -17.725 1.887 C-13.699 1.503 -9.903 1.078 -6.035 -0.133 C-3 -1 -3 -1 0 0 Z " fill="#858584" transform="translate(1309,362)"/>
<path d="M0 0 C0.33 0.99 0.66 1.98 1 3 C0.319 3.866 0.319 3.866 -0.375 4.75 C-4.605 10.607 -3.306 20.122 -3 27 C-2.554 29.278 -2.554 29.278 -2 31 C-3.901 29.405 -4.901 28.501 -5.388 26.026 C-5.392 25.291 -5.395 24.555 -5.398 23.797 C-5.402 22.981 -5.406 22.165 -5.41 21.324 C-5.399 20.475 -5.387 19.625 -5.375 18.75 C-5.387 17.916 -5.398 17.082 -5.41 16.223 C-5.384 10.733 -4.499 6.892 -2 2 C-1.34 2 -0.68 2 0 2 C0 1.34 0 0.68 0 0 Z " fill="#8D8D8C" transform="translate(1545,266)"/>
<path d="M0 0 C0.99 0.33 1.98 0.66 3 1 C2.67 2.32 2.34 3.64 2 5 C1.34 3.35 0.68 1.7 0 0 Z M3 5 C14.55 5 26.1 5 38 5 C38 5.33 38 5.66 38 6 C26.45 6 14.9 6 3 6 C3 5.67 3 5.34 3 5 Z " fill="#E9E9E9" transform="translate(1054,358)"/>
<path d="M0 0 C1.534 3.067 1.013 6.267 0.938 9.625 C0.86 15.431 1.147 20.441 3 26 C-0.142 23.564 -0.945 22.299 -1.68 18.32 C-1.764 16.923 -1.829 15.524 -1.875 14.125 C-1.921 13.43 -1.968 12.735 -2.016 12.02 C-2.233 7.574 -1.665 4.117 0 0 Z " fill="#80807F" transform="translate(1258,298)"/>
<path d="M0 0 C0.33 0.99 0.66 1.98 1 3 C-0.18 5.262 -0.18 5.262 -1.875 7.688 C-2.429 8.496 -2.984 9.304 -3.555 10.137 C-4.032 10.752 -4.509 11.366 -5 12 C-5.33 12 -5.66 12 -6 12 C-6.375 9.938 -6.375 9.938 -6 7 C-4.208 4.464 -2.158 2.228 0 0 Z M-9 13 C-8.34 13 -7.68 13 -7 13 C-7.312 14.938 -7.312 14.938 -8 17 C-8.99 17.33 -9.98 17.66 -11 18 C-11.66 17.67 -12.32 17.34 -13 17 C-12.67 16.34 -12.34 15.68 -12 15 C-11.34 15.33 -10.68 15.66 -10 16 C-9.67 15.01 -9.34 14.02 -9 13 Z " fill="#818181" transform="translate(1624,268)"/>
<path d="M0 0 C2 1 2 1 2 1 Z M-1 1 C-0.67 1.66 -0.34 2.32 0 3 C-0.66 3 -1.32 3 -2 3 C-2.247 3.763 -2.495 4.526 -2.75 5.312 C-4.11 8.236 -5.316 9.3 -8 11 C-8.66 10.67 -9.32 10.34 -10 10 C-8.879 8.684 -7.753 7.372 -6.625 6.062 C-5.999 5.332 -5.372 4.601 -4.727 3.848 C-3 2 -3 2 -1 1 Z M-13 11 C-10 12 -10 12 -10 12 Z M-15 12 C-14.34 12.33 -13.68 12.66 -13 13 C-13.99 13 -14.98 13 -16 13 C-15.67 12.67 -15.34 12.34 -15 12 Z M-19 14 C-18.01 14.33 -17.02 14.66 -16 15 C-17.32 15.33 -18.64 15.66 -20 16 C-19.67 15.34 -19.34 14.68 -19 14 Z " fill="#9B9B9A" transform="translate(938,345)"/>
<path d="M0 0 C2 1 2 1 2 1 Z M0 2 C-3.465 3.485 -3.465 3.485 -7 5 C-5.546 5.681 -5.546 5.681 -4.062 6.375 C-1 8 -1 8 0 10 C-7.75 8.125 -7.75 8.125 -10 7 C-10 6.01 -10 5.02 -10 4 C-3.375 0.875 -3.375 0.875 0 2 Z " fill="#8E8E8E" transform="translate(350,262)"/>
<path d="M0 0 C5.629 0.402 8.004 2.289 12 6 C11.67 6.66 11.34 7.32 11 8 C9.35 7.048 7.705 6.088 6.062 5.125 C5.146 4.591 4.229 4.058 3.285 3.508 C1 2 1 2 0 0 Z M12 8 C14.622 9.049 15.794 9.649 17.25 12.125 C17.497 12.744 17.745 13.363 18 14 C15.979 12.358 13.98 10.691 12 9 C12 8.67 12 8.34 12 8 Z " fill="#7D7D7C" transform="translate(1060,213)"/>
<path d="M0 0 C1 3 1 3 0.062 5.188 C-0.463 6.085 -0.463 6.085 -1 7 C-0.67 4.69 -0.34 2.38 0 0 Z M-4 7 C-3.01 7.33 -2.02 7.66 -1 8 C-2.485 8.99 -2.485 8.99 -4 10 C-4 9.01 -4 8.02 -4 7 Z M-6 10 C-5.34 10.33 -4.68 10.66 -4 11 C-4.99 11.99 -5.98 12.98 -7 14 C-7.66 13.67 -8.32 13.34 -9 13 C-8.01 12.01 -7.02 11.02 -6 10 Z M-9 14 C-9.33 14.99 -9.66 15.98 -10 17 C-11.98 17.33 -13.96 17.66 -16 18 C-12.174 14 -12.174 14 -9 14 Z " fill="#8F8F8F" transform="translate(1183,321)"/>
<path d="M0 0 C0.688 1.75 0.688 1.75 1 4 C-0.312 6.25 -0.312 6.25 -2 8 C-2.66 8 -3.32 8 -4 8 C-4 11.96 -4 15.92 -4 20 C-4.33 20 -4.66 20 -5 20 C-6.12 15.519 -6.437 11.588 -6 7 C-3.562 4.688 -3.562 4.688 -1 3 C-0.67 2.01 -0.34 1.02 0 0 Z " fill="#9C9C9C" transform="translate(320,315)"/>
<path d="M0 0 C1.938 0.5 1.938 0.5 4 2 C4.688 4.697 4.819 7.202 5 10 C3 8 3 8 2.875 5.375 C2.916 4.591 2.957 3.808 3 3 C2.01 3.495 2.01 3.495 1 4 C0.348 6.025 0.348 6.025 0 8 C-0.66 8 -1.32 8 -2 8 C-2.33 8.66 -2.66 9.32 -3 10 C-2.25 2.25 -2.25 2.25 0 0 Z " fill="#868686" transform="translate(355,250)"/>
<path d="M0 0 C6.659 -0.474 10.593 -0.352 16 4 C16.99 4.33 17.98 4.66 19 5 C18.67 5.66 18.34 6.32 18 7 C16.931 6.476 16.931 6.476 15.84 5.941 C10.499 3.404 5.921 1.395 0 1 C0 0.67 0 0.34 0 0 Z M19 7 C20.32 7.33 21.64 7.66 23 8 C22.01 8.495 22.01 8.495 21 9 C20.34 8.34 19.68 7.68 19 7 Z " fill="#9F9F9F" transform="translate(1295,252)"/>
<path d="M0 0 C2.97 0.99 5.94 1.98 9 3 C9 3.66 9 4.32 9 5 C9.908 5.124 10.815 5.248 11.75 5.375 C14.59 5.921 16.526 6.573 19 8 C14.452 8.178 11.121 7.998 7 6 C7 5.34 7 4.68 7 4 C5.35 4 3.7 4 2 4 C1.34 2.68 0.68 1.36 0 0 Z " fill="#B0B0AF" transform="translate(1255,357)"/>
<path d="M0 0 C0.66 0 1.32 0 2 0 C3.021 1.654 4.016 3.324 5 5 C6.608 7.056 8.296 9.02 10 11 C6.169 9.439 3.719 7.086 1 4 C0.188 1.688 0.188 1.688 0 0 Z M11 12 C14.688 12.498 16.605 13.101 19 16 C13.25 14.25 13.25 14.25 11 12 Z " fill="#8E8E8D" transform="translate(1543,298)"/>
<path d="M0 0 C0.66 0.33 1.32 0.66 2 1 C1.602 1.568 1.203 2.137 0.793 2.723 C-2.387 7.357 -4.989 11.75 -7 17 C-7.839 14.613 -8.136 13.391 -7.293 10.965 C-6.928 10.296 -6.563 9.627 -6.188 8.938 C-5.652 7.93 -5.652 7.93 -5.105 6.902 C-4.134 5.23 -3.073 3.61 -2 2 C-1.34 2 -0.68 2 0 2 C0 1.34 0 0.68 0 0 Z " fill="#A9A9A9" transform="translate(1112,271)"/>
<path d="M0 0 C6.023 0.7 9.792 2.483 13.875 6.938 C16 10 16 10 15.633 12.191 C15.32 13.087 15.32 13.087 15 14 C14.613 13.457 14.227 12.915 13.828 12.355 C13.307 11.64 12.787 10.925 12.25 10.188 C11.74 9.48 11.229 8.772 10.703 8.043 C7.657 4.39 4.438 2.602 0 1 C0 0.67 0 0.34 0 0 Z " fill="#A3A3A2" transform="translate(1040,236)"/>
<path d="M0 0 C3.504 1.265 6.04 2.78 9 5 C10.568 5.922 12.152 6.818 13.75 7.688 C14.549 8.124 15.348 8.561 16.172 9.012 C17.077 9.501 17.077 9.501 18 10 C15 11 15 11 12.695 9.961 C7.91 7.008 3.729 4.227 0 0 Z " fill="#9E9E9D" transform="translate(372,217)"/>
<path d="M0 0 C8.084 -0.795 13.333 1.404 20 6 C20.33 6.66 20.66 7.32 21 8 C20.361 7.732 19.721 7.464 19.062 7.188 C15.088 5.646 11.051 4.324 7 3 C7 2.34 7 1.68 7 1 C4.69 1 2.38 1 0 1 C0 0.67 0 0.34 0 0 Z " fill="#7E7E7E" transform="translate(1589,274)"/>
<path d="M0 0 C3.18 0.639 5.538 1.777 8.312 3.438 C12.177 5.651 15.675 6.988 20 8 C20 8.33 20 8.66 20 9 C12.228 9.555 6.171 5.354 0 1 C0 0.67 0 0.34 0 0 Z " fill="#979797" transform="translate(1544,354)"/>
<path d="M0 0 C0.66 0.33 1.32 0.66 2 1 C-2.275 4.741 -6.777 8.661 -12 11 C-12.99 10.67 -13.98 10.34 -15 10 C-14.504 9.697 -14.007 9.394 -13.496 9.082 C-8.859 6.222 -4.402 3.21 0 0 Z " fill="#8F8F8F" transform="translate(204,239)"/>
<path d="M0 0 C0.66 0.33 1.32 0.66 2 1 C1.361 1.66 0.721 2.32 0.062 3 C-2.589 6.857 -2.687 9.378 -3 14 C-3.66 13.67 -4.32 13.34 -5 13 C-5.615 5.738 -5.615 5.738 -2.5 2 C-1.675 1.34 -0.85 0.68 0 0 Z " fill="#A0A0A0" transform="translate(184,253)"/>
<path d="M0 0 C6.259 -0.533 10.451 1.182 16 4 C11.479 5.456 8.484 4.27 4 3 C4 2.34 4 1.68 4 1 C2.68 0.67 1.36 0.34 0 0 Z " fill="#7A7A7A" transform="translate(1577,318)"/>
<path d="M0 0 C3.342 2.705 4.582 6.015 6 10 C6.188 13.438 6.188 13.438 6 16 C4 15 4 15 3.184 12.637 C2.937 11.663 2.691 10.69 2.438 9.688 C2.189 8.722 1.94 7.756 1.684 6.762 C1.458 5.85 1.232 4.939 1 4 C0.805 3.223 0.611 2.445 0.41 1.645 C0.275 1.102 0.139 0.559 0 0 Z " fill="#9F9F9F" transform="translate(1207,277)"/>
<path d="M0 0 C3.956 4.855 5.292 8.719 5 15 C4.34 14.67 3.68 14.34 3 14 C2.402 12.109 2.402 12.109 1.938 9.75 C1.774 8.942 1.61 8.134 1.441 7.301 C1.296 6.542 1.15 5.782 1 5 C0.691 3.484 0.691 3.484 0.375 1.938 C0.251 1.298 0.128 0.659 0 0 Z " fill="#6D6C6C" transform="translate(1514,268)"/>
<path d="M0 0 C1.052 -0.021 1.052 -0.021 2.125 -0.043 C4 0.188 4 0.188 6 2.188 C1.05 2.517 -3.9 2.848 -9 3.188 C-5.618 0.933 -3.979 0.037 0 0 Z " fill="#9D9D9C" transform="translate(1156,275.8125)"/>
<path d="M0 0 C0.66 0.33 1.32 0.66 2 1 C-0.167 3.275 -2.396 5.236 -5 7 C-5.66 7 -6.32 7 -7 7 C-7 7.66 -7 8.32 -7 9 C-8.65 9 -10.3 9 -12 9 C-10.072 6.732 -8.009 5.368 -5.438 3.938 C-2.054 2.234 -2.054 2.234 0 0 Z " fill="#8E8E8D" transform="translate(1321,352)"/>
<path d="M0 0 C0.33 0 0.66 0 1 0 C1.67 2.124 2.336 4.249 3 6.375 C3.371 7.558 3.743 8.742 4.125 9.961 C5 13 5 13 5 15 C4.01 14.67 3.02 14.34 2 14 C2 12.02 2 10.04 2 8 C1.34 8 0.68 8 0 8 C0 5.36 0 2.72 0 0 Z " fill="#A3A3A3" transform="translate(1229,319)"/>
<path d="M0 0 C0 0.33 0 0.66 0 1 C-0.957 1.164 -0.957 1.164 -1.934 1.332 C-2.76 1.491 -3.586 1.649 -4.438 1.812 C-5.261 1.963 -6.085 2.114 -6.934 2.27 C-7.616 2.511 -8.297 2.752 -9 3 C-9.33 3.99 -9.66 4.98 -10 6 C-12.062 7.188 -12.062 7.188 -14 8 C-11.726 1.634 -6.412 -0.611 0 0 Z " fill="#6B6B6B" transform="translate(1472,277)"/>
<path d="M0 0 C0.33 0.99 0.66 1.98 1 3 C-0.776 6.49 -2.242 9.242 -5 12 C-4.746 10.518 -4.471 9.039 -4.188 7.562 C-4.037 6.739 -3.886 5.915 -3.73 5.066 C-3.489 4.384 -3.248 3.703 -3 3 C-2.01 2.67 -1.02 2.34 0 2 C0 1.34 0 0.68 0 0 Z " fill="#A4A4A4" transform="translate(1545,266)"/>
<path d="M0 0 C-3.73 2.034 -5.669 3 -10 3 C-9.67 2.01 -9.34 1.02 -9 0 C-3.375 -1.125 -3.375 -1.125 0 0 Z " fill="#A2A2A2" transform="translate(1309,362)"/>
<path d="M0 0 C0.33 0.99 0.66 1.98 1 3 C-1.97 5.475 -1.97 5.475 -5 8 C-3.814 4.625 -2.724 2.353 0 0 Z " fill="#A5A5A4" transform="translate(1239,272)"/>
<path d="M0 0 C1.124 3.304 0.896 5.051 -0.438 8.25 C-0.725 8.956 -1.012 9.663 -1.309 10.391 C-1.537 10.922 -1.765 11.453 -2 12 C-3.307 7.831 -2.398 5.115 -1 1 C-0.67 0.67 -0.34 0.34 0 0 Z " fill="#AEAEAE" transform="translate(1341,322)"/>
<path d="M0 0 C0.66 0 1.32 0 2 0 C1.688 1.938 1.688 1.938 1 4 C0.01 4.33 -0.98 4.66 -2 5 C-2.66 4.67 -3.32 4.34 -4 4 C-3.67 3.34 -3.34 2.68 -3 2 C-2.34 2.33 -1.68 2.66 -1 3 C-0.67 2.01 -0.34 1.02 0 0 Z " fill="#A8A8A8" transform="translate(1615,281)"/>
<path d="M0 0 C2.214 3.795 3.01 7.756 4 12 C2 10.5 2 10.5 0 8 C-0.358 5.241 -0.187 2.799 0 0 Z " fill="#8A8989" transform="translate(1257,312)"/>
<path d="M0 0 C1.98 0.99 1.98 0.99 4 2 C2.68 2.33 1.36 2.66 0 3 C0 2.01 0 1.02 0 0 Z M4 3 C4.99 3 5.98 3 7 3 C7 3.66 7 4.32 7 5 C7.66 5 8.32 5 9 5 C8.67 5.66 8.34 6.32 8 7 C6.68 5.68 5.36 4.36 4 3 Z " fill="#848484" transform="translate(1185,257)"/>
<path d="M0 0 C0.66 0.33 1.32 0.66 2 1 C0.35 3.64 -1.3 6.28 -3 9 C-3.33 8.34 -3.66 7.68 -4 7 C-3.062 4.375 -3.062 4.375 -2 2 C-1.34 2 -0.68 2 0 2 C0 1.34 0 0.68 0 0 Z " fill="#777777" transform="translate(1112,271)"/>
<path d="M0 0 C0.66 0.33 1.32 0.66 2 1 C-0.363 3.526 -1.665 4.888 -5 6 C-3.63 2.839 -3.011 2.007 0 0 Z " fill="#9D9D9D" transform="translate(289,183)"/>
<path d="M0 0 C2.97 0.99 5.94 1.98 9 3 C9 3.66 9 4.32 9 5 C5.625 4.75 5.625 4.75 2 4 C1.34 2.68 0.68 1.36 0 0 Z " fill="#969696" transform="translate(1255,357)"/>
<path d="M0 0 C2.875 0.312 2.875 0.312 6 1 C6.66 1.99 7.32 2.98 8 4 C5.648 3.401 3.314 2.731 1 2 C0.67 1.34 0.34 0.68 0 0 Z " fill="#9F9F9F" transform="translate(1060,213)"/>
<path d="M0 0 C6.523 0.615 6.523 0.615 8.938 2.562 C9.288 3.037 9.639 3.511 10 4 C6.442 3.39 3.317 2.422 0 1 C0 0.67 0 0.34 0 0 Z " fill="#7B7B7A" transform="translate(865,359)"/>
<path d="M0 0 C3.775 1.091 6.47 1.908 9 5 C5.225 3.909 2.53 3.092 0 0 Z " fill="#727171" transform="translate(1496,253)"/>
<path d="M0 0 C0.99 0.33 1.98 0.66 3 1 C3.688 3.062 3.688 3.062 4 5 C3.34 5 2.68 5 2 5 C1.34 3.35 0.68 1.7 0 0 Z " fill="#ADADAD" transform="translate(1261,326)"/>
<path d="M0 0 C1.562 1.812 1.562 1.812 3 4 C2.67 4.99 2.34 5.98 2 7 C0 5 0 5 -0.125 2.375 C-0.084 1.591 -0.043 0.808 0 0 Z M3 7 C5 8 5 8 5 8 Z " fill="#7E7D7D" transform="translate(290,315)"/>
<path d="M0 0 C2.125 0.375 2.125 0.375 4 1 C3.01 1.66 2.02 2.32 1 3 C0.01 2.67 -0.98 2.34 -2 2 C-1.34 1.34 -0.68 0.68 0 0 Z " fill="#B2B2B2" transform="translate(1399,255)"/>
<path d="M0 0 C0.99 0.33 1.98 0.66 3 1 C3 1.66 3 2.32 3 3 C2.01 2.67 1.02 2.34 0 2 C0 1.34 0 0.68 0 0 Z M4 4 C4.66 4 5.32 4 6 4 C5.67 4.66 5.34 5.32 5 6 C4.67 5.34 4.34 4.68 4 4 Z " fill="#807F7F" transform="translate(423,251)"/>
<path d="M0 0 C0.99 0.33 1.98 0.66 3 1 C2.67 2.32 2.34 3.64 2 5 C1.34 3.35 0.68 1.7 0 0 Z " fill="#807F7F" transform="translate(1052,353)"/>
<path d="M0 0 C0.99 0.33 1.98 0.66 3 1 C3 1.66 3 2.32 3 3 C2.01 2.67 1.02 2.34 0 2 C0 1.34 0 0.68 0 0 Z " fill="#B5B5B5" transform="translate(1054,358)"/>
<path d="M0 0 C0.99 0.33 1.98 0.66 3 1 C3 1.66 3 2.32 3 3 C2.01 2.67 1.02 2.34 0 2 C0 1.34 0 0.68 0 0 Z " fill="#B6B6B6" transform="translate(1261,326)"/>
</svg>